<svg width="29" height="32" viewBox="0 0 29 32" fill="none" xmlns="http://www.w3.org/2000/svg">
<path d="M13.8419 23.2727H3.6601C2.88856 23.2727 2.14862 22.9662 1.60306 22.4207C1.0575 21.8751 0.751007 21.1352 0.751007 20.3636V2.90909C0.751007 2.13755 1.0575 1.39761 1.60306 0.852053C2.14862 0.306493 2.88856 0 3.6601 0H21.1146V2.90909H3.6601V20.3636H13.8419V17.4545L19.6601 21.8182L13.8419 26.1818V23.2727ZM25.4783 29.0909V8.72727H9.47828V17.4545H6.56919V8.72727C6.56919 7.95573 6.87568 7.2158 7.42124 6.67023C7.9668 6.12467 8.70674 5.81818 9.47828 5.81818H25.4783C26.2498 5.81818 26.9898 6.12467 27.5353 6.67023C28.0809 7.2158 28.3874 7.95573 28.3874 8.72727V29.0909C28.3874 29.8624 28.0809 30.6024 27.5353 31.1479C26.9898 31.6935 26.2498 32 25.4783 32H9.47828C8.70674 32 7.9668 31.6935 7.42124 31.1479C6.87568 30.6024 6.56919 29.8624 6.56919 29.0909V26.1818H9.47828V29.0909H25.4783Z" fill="white"/>
</svg>
